<svg viewBox="0 0 329.9913024902344 200" xmlns="http://www.w3.org/2000/svg"><g><g><g><g><g><line x1="50" y1="177" x2="45" y2="177" style="visibility: inherit;" fill="rgb(0, 0, 0)" stroke="rgb(204, 204, 204)" stroke-width="1px"></line><line x1="50" y1="157.33333333333331" x2="45" y2="157.33333333333331" style="visibility: inherit;" fill="rgb(0, 0, 0)" stroke="rgb(204, 204, 204)" stroke-width="1px"></line><line x1="50" y1="137.66666666666666" x2="45" y2="137.66666666666666" style="visibility: inherit;" fill="rgb(0, 0, 0)" stroke="rgb(204, 204, 204)" stroke-width="1px"></line><line x1="50" y1="117.99999999999997" x2="45" y2="117.99999999999997" style="visibility: inherit;" fill="rgb(0, 0, 0)" stroke="rgb(204, 204, 204)" stroke-width="1px"></line><line x1="50" y1="98.3333333333333" x2="45" y2="98.3333333333333" style="visibility: inherit;" fill="rgb(0, 0, 0)" stroke="rgb(204, 204, 204)" stroke-width="1px"></line><line x1="50" y1="78.6666666666666" x2="45" y2="78.6666666666666" style="visibility: inherit;" fill="rgb(0, 0, 0)" stroke="rgb(204, 204, 204)" stroke-width="1px"></line><line x1="50" y1="59.00000000000004" x2="45" y2="59.00000000000004" style="visibility: inherit;" fill="rgb(0, 0, 0)" stroke="rgb(204, 204, 204)" stroke-width="1px"></line><line x1="50" y1="39.33333333333335" x2="45" y2="39.33333333333335" style="visibility: inherit;" fill="rgb(0, 0, 0)" stroke="rgb(204, 204, 204)" stroke-width="1px"></line><line x1="50" y1="19.666666666666675" x2="45" y2="19.666666666666675" style="visibility: inherit;" fill="rgb(0, 0, 0)" stroke="rgb(204, 204, 204)" stroke-width="1px"></line><line x1="50" y1="0" x2="45" y2="0" style="visibility: inherit;" fill="rgb(0, 0, 0)" stroke="rgb(204, 204, 204)" stroke-width="1px"></line></g><g transform="translate(40, 0)"><text x="0" y="177" dx="0em" dy="0.3em" style="text-anchor: end; visibility: hidden; font-family: Roboto, sans-serif; font-size: 12px; font-weight: 200;" fill="rgb(33, 33, 33)" stroke="none" stroke-width="1px">0.82</text><text x="0" y="157.33333333333331" dx="0em" dy="0.3em" style="text-anchor: end; visibility: inherit; font-family: Roboto, sans-serif; font-size: 12px; font-weight: 200;" fill="rgb(33, 33, 33)" stroke="none" stroke-width="1px">0.84</text><text x="0" y="137.66666666666666" dx="0em" dy="0.3em" style="text-anchor: end; visibility: hidden; font-family: Roboto, sans-serif; font-size: 12px; font-weight: 200;" fill="rgb(33, 33, 33)" stroke="none" stroke-width="1px">0.86</text><text x="0" y="117.99999999999997" dx="0em" dy="0.3em" style="text-anchor: end; visibility: inherit; font-family: Roboto, sans-serif; font-size: 12px; font-weight: 200;" fill="rgb(33, 33, 33)" stroke="none" stroke-width="1px">0.88</text><text x="0" y="98.3333333333333" dx="0em" dy="0.3em" style="text-anchor: end; visibility: hidden; font-family: Roboto, sans-serif; font-size: 12px; font-weight: 200;" fill="rgb(33, 33, 33)" stroke="none" stroke-width="1px">0.9</text><text x="0" y="78.6666666666666" dx="0em" dy="0.3em" style="text-anchor: end; visibility: inherit; font-family: Roboto, sans-serif; font-size: 12px; font-weight: 200;" fill="rgb(33, 33, 33)" stroke="none" stroke-width="1px">0.92</text><text x="0" y="59.00000000000004" dx="0em" dy="0.3em" style="text-anchor: end; visibility: hidden; font-family: Roboto, sans-serif; font-size: 12px; font-weight: 200;" fill="rgb(33, 33, 33)" stroke="none" stroke-width="1px">0.94</text><text x="0" y="39.33333333333335" dx="0em" dy="0.3em" style="text-anchor: end; visibility: inherit; font-family: Roboto, sans-serif; font-size: 12px; font-weight: 200;" fill="rgb(33, 33, 33)" stroke="none" stroke-width="1px">0.96</text><text x="0" y="19.666666666666675" dx="0em" dy="0.3em" style="text-anchor: end; visibility: hidden; font-family: Roboto, sans-serif; font-size: 12px; font-weight: 200;" fill="rgb(33, 33, 33)" stroke="none" stroke-width="1px">0.98</text><text x="0" y="0" dx="0em" dy="0.3em" style="text-anchor: end; visibility: hidden; font-family: Roboto, sans-serif; font-size: 12px; font-weight: 200;" fill="rgb(33, 33, 33)" stroke="none" stroke-width="1px">1</text></g><line x1="50" y1="0" x2="50" y2="177" fill="rgb(0, 0, 0)" stroke="rgb(204, 204, 204)" stroke-width="1px"></line></g></g><g transform="translate(50, 0)" clip-path="url(#clip_0)"><clipPath id="clip_0"><rect width="279" height="176"></rect></clipPath><g><g><g><line x1="0" y1="0" x2="0" y2="177" fill="rgb(0, 0, 0)" stroke="rgb(66, 66, 66)" stroke-width="1px" opacity="0.25"></line><line x1="23.332583333333332" y1="0" x2="23.332583333333332" y2="177" fill="rgb(0, 0, 0)" stroke="rgb(66, 66, 66)" stroke-width="1px" opacity="0.25"></line><line x1="46.665166666666664" y1="0" x2="46.665166666666664" y2="177" fill="rgb(0, 0, 0)" stroke="rgb(66, 66, 66)" stroke-width="1px" opacity="0.25"></line><line x1="69.99775" y1="0" x2="69.99775" y2="177" fill="rgb(0, 0, 0)" stroke="rgb(66, 66, 66)" stroke-width="1px" opacity="0.25"></line><line x1="93.33033333333333" y1="0" x2="93.33033333333333" y2="177" fill="rgb(0, 0, 0)" stroke="rgb(66, 66, 66)" stroke-width="1px" opacity="0.25"></line><line x1="116.66291666666666" y1="0" x2="116.66291666666666" y2="177" fill="rgb(0, 0, 0)" stroke="rgb(66, 66, 66)" stroke-width="1px" opacity="0.25"></line><line x1="139.9955" y1="0" x2="139.9955" y2="177" fill="rgb(0, 0, 0)" stroke="rgb(66, 66, 66)" stroke-width="1px" opacity="0.25"></line><line x1="163.32808333333332" y1="0" x2="163.32808333333332" y2="177" fill="rgb(0, 0, 0)" stroke="rgb(66, 66, 66)" stroke-width="1px" opacity="0.25"></line><line x1="186.66066666666666" y1="0" x2="186.66066666666666" y2="177" fill="rgb(0, 0, 0)" stroke="rgb(66, 66, 66)" stroke-width="1px" opacity="0.25"></line><line x1="209.99325" y1="0" x2="209.99325" y2="177" fill="rgb(0, 0, 0)" stroke="rgb(66, 66, 66)" stroke-width="1px" opacity="0.25"></line><line x1="233.32583333333332" y1="0" x2="233.32583333333332" y2="177" fill="rgb(0, 0, 0)" stroke="rgb(66, 66, 66)" stroke-width="1px" opacity="0.25"></line><line x1="256.65841666666665" y1="0" x2="256.65841666666665" y2="177" fill="rgb(0, 0, 0)" stroke="rgb(66, 66, 66)" stroke-width="1px" opacity="0.25"></line><line x1="279.991" y1="0" x2="279.991" y2="177" fill="rgb(0, 0, 0)" stroke="rgb(66, 66, 66)" stroke-width="1px" opacity="0.25"></line></g><g><line x1="0" y1="177" x2="279.991" y2="177" fill="rgb(0, 0, 0)" stroke="rgb(66, 66, 66)" stroke-width="1px" opacity="0.25"></line><line x1="0" y1="157.33333333333331" x2="279.991" y2="157.33333333333331" fill="rgb(0, 0, 0)" stroke="rgb(66, 66, 66)" stroke-width="1px" opacity="0.25"></line><line x1="0" y1="137.66666666666666" x2="279.991" y2="137.66666666666666" fill="rgb(0, 0, 0)" stroke="rgb(66, 66, 66)" stroke-width="1px" opacity="0.25"></line><line x1="0" y1="117.99999999999997" x2="279.991" y2="117.99999999999997" fill="rgb(0, 0, 0)" stroke="rgb(66, 66, 66)" stroke-width="1px" opacity="0.25"></line><line x1="0" y1="98.3333333333333" x2="279.991" y2="98.3333333333333" fill="rgb(0, 0, 0)" stroke="rgb(66, 66, 66)" stroke-width="1px" opacity="0.25"></line><line x1="0" y1="78.6666666666666" x2="279.991" y2="78.6666666666666" fill="rgb(0, 0, 0)" stroke="rgb(66, 66, 66)" stroke-width="1px" opacity="0.25"></line><line x1="0" y1="59.00000000000004" x2="279.991" y2="59.00000000000004" fill="rgb(0, 0, 0)" stroke="rgb(66, 66, 66)" stroke-width="1px" opacity="0.25"></line><line x1="0" y1="39.33333333333335" x2="279.991" y2="39.33333333333335" fill="rgb(0, 0, 0)" stroke="rgb(66, 66, 66)" stroke-width="1px" opacity="0.25"></line><line x1="0" y1="19.666666666666675" x2="279.991" y2="19.666666666666675" fill="rgb(0, 0, 0)" stroke="rgb(66, 66, 66)" stroke-width="1px" opacity="0.25"></line><line x1="0" y1="0" x2="279.991" y2="0" fill="rgb(0, 0, 0)" stroke="rgb(66, 66, 66)" stroke-width="1px" opacity="0.25"></line></g></g></g><g><g><line x1="0" y1="983.3333333333331" x2="279.991" y2="983.3333333333331" fill="rgb(0, 0, 0)" stroke="rgb(153, 153, 153)" stroke-width="1.5px"></line></g></g><g><g><line x1="23.332583333333332" y1="0" x2="23.332583333333332" y2="177" fill="rgb(0, 0, 0)" stroke="rgb(153, 153, 153)" stroke-width="1.5px"></line></g></g><g><g><g><g><g><path stroke="rgb(255, 112, 67)" stroke-width="2px" d="M32.665616666666665,189.55988105788924L34.998875,162.45503206935734L37.33213333333333,140.75515402417548L39.665391666666665,123.56096230774124L41.99865,109.99094199153114L44.33190833333333,99.71293240044282L46.665166666666664,90.31203046942683L48.998425,81.00497257088206L51.331683333333324,73.56718787642755L53.66494166666667,70.33052727461745L55.9982,66.9555683222577L58.33145833333333,61.58487754715657L60.66471666666666,56.666350445515846L62.997975,52.06660767451777L65.33123333333333,54.0631366846402L67.66449166666666,52.53646234351144L69.99775,47.10357823633534L72.33100833333334,44.29800297775093L74.66426666666666,43.03291108078527L76.997525,43.002755096914555L79.33078333333333,39.6986251421495L81.66404166666666,38.24192029188983L83.9973,37.6905189788423L86.33055833333333,37.02510197840712L88.66381666666666,34.96490283326967L90.997075,32.99989436448259L93.33033333333333,34.2226844723581L95.66359166666666,31.550811020212976L97.99685,31.740089040701445L100.33010833333333,30.097100557523085L102.66336666666665,30.485483069919706L104.996625,27.719235029916298L107.32988333333334,30.83918549984353L109.66314166666666,27.84782999658274L111.9964,26.124709963359198L114.32965833333333,27.33728932675344L116.66291666666666,26.881851239653525L118.996175,26.26207877188022L121.32943333333333,24.92230937237062L123.66269166666666,23.62852814982479L125.99595,25.027040977564695L128.32920833333333,27.192497455783947L130.66246666666666,24.50072141699354L132.995725,22.22845974884698L135.32898333333333,19.765766998032973L137.66224166666666,19.542830312190745L139.9955,23.220861628036676L142.32875833333333,23.145382408925272L144.6620166666667,22.395095510061193L146.995275,21.28770388132759L149.32853333333333,21.459721547165227L151.66179166666666,21.18055245586134L153.99505,20.61873806302481L156.32830833333333,20.37723262777761L158.66156666666666,19.121060369436915L160.994825,18.17616716902954L163.32808333333332,17.191004927246887L165.66134166666666,18.702972437116934L167.9946,19.39507315864577L170.3278583333333,17.77896199808758L172.66111666666666,17.89667435995486L174.994375,17.513228824804578L177.32763333333332,17.522154671591817L179.66089166666669,15.926298154975342L181.99415,17.310842267822498L184.32740833333332,19.133364593278127L186.66066666666666,18.350826165253352L188.993925,16.90146394243303L191.32718333333332,17.04753240547847L193.66044166666666,16.69305722277728L195.9937,15.41688299394467L198.32695833333332,15.021624900202834L200.66021666666666,15.238542996228302L202.993475,16.145386482704044L205.3267333333333,17.35864531125329L207.65999166666666,16.533191906168152L209.99325,15.631650233320936L212.32650833333332,14.72030223054838L214.65976666666668,15.356479132035192L216.993025,14.2086665097031L219.32628333333332,13.472199058323287L221.65954166666666,14.308887491100485L223.9928,13.185798587087872L226.32605833333332,12.010068969935638L228.65931666666665,12.236667043175604L230.992575,13.316618422392768L233.32583333333332,13.880939296716676L235.65909166666665,15.354714201987369L237.99235,15.808819576363152L240.3256083333333,15.220940218921742L242.65886666666665,13.505993747645384L244.992125,12.393375911673226L247.32538333333332,12.275461362815063L249.65864166666668,11.021750374843352L251.9919,11.476399424201107L254.32515833333332,12.32273494553117" style="fill: none;" fill="none"></path></g></g></g></g><g opacity="0.2"><g><g><g><path stroke="rgb(255, 112, 67)" stroke-width="2px" d="M27.9991,207.02068110307053L30.33235833333333,172.27822740872696L32.665616666666665,145.09369234244025L34.998875,124.95926817258196L37.33213333333333,109.7239812215169L39.665391666666665,98.49166572093962L41.99865,89.9777978658676L44.33190833333333,84.4512859980265L46.665166666666664,76.2959430615107L48.998425,67.09503432114917L51.331683333333324,62.43479649225869L53.66494166666667,65.48187732696532L55.9982,61.89709703127542L58.33145833333333,53.532629211743654L60.66471666666666,49.29064114888508L62.997975,45.1681613922119L65.33123333333333,57.05762604872383L67.66449166666666,50.24659037590025L69.99775,38.95455002784728L72.33100833333334,40.08973240852355L74.66426666666666,41.13529821236928L76.997525,42.95752147833506L79.33078333333333,34.74245369434356L81.66404166666666,36.05686922868092L83.9973,36.86341842015583L86.33055833333333,36.026977499326065L88.66381666666666,31.87460601329802L90.997075,30.052382747332246L93.33033333333333,36.05686922868092L95.66359166666666,27.54300137360889L97.99685,32.024006048838295L100.33010833333333,27.632617950439453L102.66336666666665,31.068056821823106L104.996625,23.56986304124195L107.32988333333334,35.51911115646361L109.66314166666666,23.360796769460034L111.9964,23.540029923121136L114.32965833333333,29.156158367792756L116.66291666666666,26.198694109916673L118.996175,25.332420070966084L121.32943333333333,22.912655274073273L123.66269166666666,21.68785631656646L125.99595,27.124810218811028L128.32920833333333,30.44068217277526L130.66246666666666,20.46305735905965L132.995725,18.820067246754956L135.32898333333333,16.071727871894822L137.66224166666666,19.208425283432007L139.9955,28.737908601760857L142.32875833333333,23.03216358025868L144.6620166666667,21.269665161768597L146.995275,19.62661643822987L149.32853333333333,21.717748045921326L151.66179166666666,20.76179881890614L153.99505,19.77601647377014L156.32830833333333,20.01497447490692L158.66156666666666,17.236801981925957L160.994825,16.758827368418366L163.32808333333332,15.713261564572656L165.66134166666666,20.97092370192209L167.9946,20.433224240938817L170.3278583333333,15.354795257250471L172.66111666666666,18.073242902755737L174.994375,16.938060522079468L177.32763333333332,17.535543441772447L179.66089166666669,13.53251338005066L181.99415,19.38765843709309L184.32740833333332,21.86714808146158L186.66066666666666,17.177018523216248L188.993925,14.727420608202605L191.32718333333332,17.266635100046788L193.66044166666666,16.161344448725384L195.9937,13.502621650695794L198.32695833333332,14.428737759590149L200.66021666666666,15.563920140266418L202.993475,17.505651712417603L205.3267333333333,19.17853355407714L207.65999166666666,15.29501179854074L209.99325,14.279337724049878L212.32650833333332,13.353280226389556L214.65976666666668,16.310744484265637L216.993025,12.486947576204932L219.32628333333332,12.367497881253557L221.65954166666666,15.563920140266418L223.9928,11.501165231068933L226.32605833333332,10.246474544207258L228.65931666666665,12.576564153035473L230.992575,14.936545491218554L233.32583333333332,14.727420608202605L235.65909166666665,17.56537655989328L237.99235,16.48997763792674L240.3256083333333,14.339121182759607L242.65886666666665,10.933574040730798L244.992125,10.72444915771485L247.32538333333332,12.09858953952788L249.65864166666668,9.141183892885833L251.9919,12.15837299823761L254.32515833333332,13.592238227526336" style="fill: none;" fill="none"></path></g></g></g></g></g></g><g transform="translate(50, 177)" clip-path="url(#clip_1)"><clipPath id="clip_1"><rect width="279" height="22"></rect></clipPath><g><g><line x1="0" y1="0" x2="0" y2="5" style="visibility: inherit;" fill="rgb(0, 0, 0)" stroke="rgb(204, 204, 204)" stroke-width="1px"></line><line x1="23.332583333333332" y1="0" x2="23.332583333333332" y2="5" style="visibility: inherit;" fill="rgb(0, 0, 0)" stroke="rgb(204, 204, 204)" stroke-width="1px"></line><line x1="46.665166666666664" y1="0" x2="46.665166666666664" y2="5" style="visibility: inherit;" fill="rgb(0, 0, 0)" stroke="rgb(204, 204, 204)" stroke-width="1px"></line><line x1="69.99775" y1="0" x2="69.99775" y2="5" style="visibility: inherit;" fill="rgb(0, 0, 0)" stroke="rgb(204, 204, 204)" stroke-width="1px"></line><line x1="93.33033333333333" y1="0" x2="93.33033333333333" y2="5" style="visibility: inherit;" fill="rgb(0, 0, 0)" stroke="rgb(204, 204, 204)" stroke-width="1px"></line><line x1="116.66291666666666" y1="0" x2="116.66291666666666" y2="5" style="visibility: inherit;" fill="rgb(0, 0, 0)" stroke="rgb(204, 204, 204)" stroke-width="1px"></line><line x1="139.9955" y1="0" x2="139.9955" y2="5" style="visibility: inherit;" fill="rgb(0, 0, 0)" stroke="rgb(204, 204, 204)" stroke-width="1px"></line><line x1="163.32808333333332" y1="0" x2="163.32808333333332" y2="5" style="visibility: inherit;" fill="rgb(0, 0, 0)" stroke="rgb(204, 204, 204)" stroke-width="1px"></line><line x1="186.66066666666666" y1="0" x2="186.66066666666666" y2="5" style="visibility: inherit;" fill="rgb(0, 0, 0)" stroke="rgb(204, 204, 204)" stroke-width="1px"></line><line x1="209.99325" y1="0" x2="209.99325" y2="5" style="visibility: inherit;" fill="rgb(0, 0, 0)" stroke="rgb(204, 204, 204)" stroke-width="1px"></line><line x1="233.32583333333332" y1="0" x2="233.32583333333332" y2="5" style="visibility: inherit;" fill="rgb(0, 0, 0)" stroke="rgb(204, 204, 204)" stroke-width="1px"></line><line x1="256.65841666666665" y1="0" x2="256.65841666666665" y2="5" style="visibility: inherit;" fill="rgb(0, 0, 0)" stroke="rgb(204, 204, 204)" stroke-width="1px"></line><line x1="279.991" y1="0" x2="279.991" y2="5" style="visibility: inherit;" fill="rgb(0, 0, 0)" stroke="rgb(204, 204, 204)" stroke-width="1px"></line></g><g transform="translate(0, 8)"><text x="0" y="0" dx="0em" dy="0.95em" style="text-anchor: middle; visibility: hidden; font-family: Roboto, sans-serif; font-size: 12px; font-weight: 200;" fill="rgb(33, 33, 33)" stroke="none" stroke-width="1px">-10</text><text x="23.332583333333332" y="0" dx="0em" dy="0.95em" style="text-anchor: middle; visibility: inherit; font-family: Roboto, sans-serif; font-size: 12px; font-weight: 200;" fill="rgb(33, 33, 33)" stroke="none" stroke-width="1px">0</text><text x="46.665166666666664" y="0" dx="0em" dy="0.95em" style="text-anchor: middle; visibility: inherit; font-family: Roboto, sans-serif; font-size: 12px; font-weight: 200;" fill="rgb(33, 33, 33)" stroke="none" stroke-width="1px">10</text><text x="69.99775" y="0" dx="0em" dy="0.95em" style="text-anchor: middle; visibility: inherit; font-family: Roboto, sans-serif; font-size: 12px; font-weight: 200;" fill="rgb(33, 33, 33)" stroke="none" stroke-width="1px">20</text><text x="93.33033333333333" y="0" dx="0em" dy="0.95em" style="text-anchor: middle; visibility: inherit; font-family: Roboto, sans-serif; font-size: 12px; font-weight: 200;" fill="rgb(33, 33, 33)" stroke="none" stroke-width="1px">30</text><text x="116.66291666666666" y="0" dx="0em" dy="0.95em" style="text-anchor: middle; visibility: inherit; font-family: Roboto, sans-serif; font-size: 12px; font-weight: 200;" fill="rgb(33, 33, 33)" stroke="none" stroke-width="1px">40</text><text x="139.9955" y="0" dx="0em" dy="0.95em" style="text-anchor: middle; visibility: inherit; font-family: Roboto, sans-serif; font-size: 12px; font-weight: 200;" fill="rgb(33, 33, 33)" stroke="none" stroke-width="1px">50</text><text x="163.32808333333332" y="0" dx="0em" dy="0.95em" style="text-anchor: middle; visibility: inherit; font-family: Roboto, sans-serif; font-size: 12px; font-weight: 200;" fill="rgb(33, 33, 33)" stroke="none" stroke-width="1px">60</text><text x="186.66066666666666" y="0" dx="0em" dy="0.95em" style="text-anchor: middle; visibility: inherit; font-family: Roboto, sans-serif; font-size: 12px; font-weight: 200;" fill="rgb(33, 33, 33)" stroke="none" stroke-width="1px">70</text><text x="209.99325" y="0" dx="0em" dy="0.95em" style="text-anchor: middle; visibility: inherit; font-family: Roboto, sans-serif; font-size: 12px; font-weight: 200;" fill="rgb(33, 33, 33)" stroke="none" stroke-width="1px">80</text><text x="233.32583333333332" y="0" dx="0em" dy="0.95em" style="text-anchor: middle; visibility: inherit; font-family: Roboto, sans-serif; font-size: 12px; font-weight: 200;" fill="rgb(33, 33, 33)" stroke="none" stroke-width="1px">90</text><text x="256.65841666666665" y="0" dx="0em" dy="0.95em" style="text-anchor: middle; visibility: inherit; font-family: Roboto, sans-serif; font-size: 12px; font-weight: 200;" fill="rgb(33, 33, 33)" stroke="none" stroke-width="1px">100</text><text x="279.991" y="0" dx="0em" dy="0.95em" style="text-anchor: middle; visibility: hidden; font-family: Roboto, sans-serif; font-size: 12px; font-weight: 200;" fill="rgb(33, 33, 33)" stroke="none" stroke-width="1px">110</text></g><line x1="0" y1="0" x2="279.991" y2="0" fill="rgb(0, 0, 0)" stroke="rgb(204, 204, 204)" stroke-width="1px"></line></g></g></g></g></svg>